<svg viewBox="0 0 24 24" fill="none" xmlns="http://www.w3.org/2000/svg">
  <g stroke="#004D3A" stroke-width="0.4" stroke-linejoin="round" stroke-linecap="round">
    <circle cx="12" cy="1.7" r="0.5"/>
    <path d="M12 2.2 L12 2.9"/>
    <ellipse cx="12" cy="3.2" rx="0.85" ry="0.3"/>
    <path d="M12 4.0 C 11 4.05 10.4 4.2 10 4.7 C 9.5 5.2 9.36 5.4 9.4 6.0 C 9.5 6.9 9.9 7.6 10.3 8.3 C 10.55 8.9 10.5 9.3 10.2 9.9 C 9.7 10.8 9.36 11.4 9.4 12.1 C 9.44 12.8 9.6 13.2 10.2 13.7 C 10.8 14.0 11.4 14.05 12 14.05 C 12.6 14.05 13.2 14.0 13.8 13.7 C 14.4 13.2 14.56 12.8 14.6 12.1 C 14.64 11.4 14.3 10.8 13.8 9.9 C 13.5 9.3 13.45 8.9 13.7 8.3 C 14.1 7.6 14.5 6.9 14.6 6.0 C 14.64 5.4 14.5 5.2 14 4.7 C 13.6 4.2 13 4.05 12 4.0 Z"/>
    <path d="M12 14.05 L12 18.6"/>
    <ellipse cx="12" cy="16.3" rx="0.75" ry="0.32"/>
    <path d="M12 18.8 C 11.2 19.8 10.3 20.2 9.5 21.3 C 9.0 22.0 9.2 22.5 9.35 22.6"/>
    <path d="M12 18.8 C 12.8 19.8 13.7 20.2 14.5 21.3 C 15.0 22.0 14.8 22.5 14.65 22.6"/>
    <path d="M12 18.8 L12 22.5"/>
  </g>
</svg>
