<svg viewBox="0 0 24 24" fill="none" xmlns="http://www.w3.org/2000/svg">
  <g stroke="#004D3A" stroke-width="0.4" stroke-linejoin="round" stroke-linecap="round">
    <circle cx="12" cy="2.2" r="0.7"/>
    <path d="M12 2.9 L12 4.2"/>
    <path d="M12 4.4 C 10 4.5 9.4 5.8 9.3 7.4 C 9.2 9.2 9.9 10.6 10 11.8 C 10.05 12.8 9.5 13.4 9.3 14.4 L 14.7 14.4 C 14.5 13.4 13.95 12.8 14 11.8 C 14.1 10.6 14.8 9.2 14.7 7.4 C 14.6 5.8 14 4.5 12 4.4 Z"/>
    <path d="M10.3 4.9 Q12 5.9 13.7 4.9"/>
    <path d="M11.1 5.7 C 10.6 8 10.7 11.5 11.3 14.2"/>
    <path d="M12.9 5.7 C 13.4 8 13.3 11.5 12.7 14.2"/>
    <path d="M12 14.4 L12 18.8"/>
    <ellipse cx="12" cy="16.2" rx="1" ry="0.5"/>
    <circle cx="12" cy="18.9" r="0.55"/>
    <path d="M11.7 19.3 C 10.8 20.4 10 20.7 9.1 21.9 C 8.7 22.4 8.1 22.1 8.5 21.6"/>
    <path d="M12.3 19.3 C 13.2 20.4 14 20.7 14.9 21.9 C 15.3 22.4 15.9 22.1 15.5 21.6"/>
    <path d="M12 19.4 L12 22.2 C 12 22.5 12.3 22.5 12.4 22.2"/>
  </g>
</svg>
