<svg viewBox="0 0 24 24" fill="none" xmlns="http://www.w3.org/2000/svg">
  <g stroke="#004D3A" stroke-width="0.4" stroke-linejoin="round" stroke-linecap="round">
    <path d="M12 11.3 L12 22.3"/>
    <path d="M13.47 6.78 A2.1 2.1 0 1 1 14.38 9.57 A2.1 2.1 0 1 1 12 11.3 A2.1 2.1 0 1 1 9.62 9.57 A2.1 2.1 0 1 1 10.53 6.78 A2.1 2.1 0 1 1 13.47 6.78 Z"/>
    <circle cx="12" cy="8.8" r="1.5"/>
    <path d="M11.6 17.6 C 9 17.2 6.2 18.4 5 21 C 7.8 21.2 10.4 20.2 11.6 17.6 Z"/>
    <path d="M11 18.4 C 8.9 18.9 7.1 19.9 5.8 20.8"/>
    <path d="M12.4 17.6 C 15 17.2 17.8 18.4 19 21 C 16.2 21.2 13.6 20.2 12.4 17.6 Z"/>
    <path d="M13 18.4 C 15.1 18.9 16.9 19.9 18.2 20.8"/>
  </g>
</svg>
