<svg viewBox="0 0 24 24" fill="none" xmlns="http://www.w3.org/2000/svg">
  <g stroke="#004D3A" stroke-width="0.4" stroke-linejoin="round" stroke-linecap="round">
    <path d="M12 11.3 L12 22"/>
    <path d="M13.47 6.78 A2.1 2.1 0 1 1 14.38 9.57 A2.1 2.1 0 1 1 12 11.3 A2.1 2.1 0 1 1 9.62 9.57 A2.1 2.1 0 1 1 10.53 6.78 A2.1 2.1 0 1 1 13.47 6.78 Z"/>
    <circle cx="12" cy="8.8" r="1.5"/>
    <path d="M3.4 15.2 Q8.2 16.7 11.2 20.8 Q6.4 19.3 3.4 15.2 Z"/>
    <path d="M10.4 20.1 Q7 18 4 15.6"/>
    <path d="M20.6 15.2 Q15.8 16.7 12.8 20.8 Q17.6 19.3 20.6 15.2 Z"/>
    <path d="M13.6 20.1 Q17 18 20 15.6"/>
  </g>
</svg>
