<svg xmlns="http://www.w3.org/2000/svg" width="1254" height="1254" viewBox="318 276 617 617">
  <title>flower icon</title>
  <desc>Transparent-background SVG traced directly from the supplied icon without changing composition or details.</desc>
  <path d="M 619 314 L 618 315 L 609 316 L 594 322 L 579 333 L 572 341 L 564 355 L 560 367 L 560 371 L 559 372 L 559 394 L 558 395 L 553 392 L 538 388 L 519 388 L 504 392 L 492 398 L 484 404 L 474 415 L 466 429 L 461 446 L 460 461 L 461 462 L 461 469 L 464 481 L 469 492 L 475 501 L 487 513 L 493 517 L 503 522 L 518 526 L 518 528 L 516 529 L 510 537 L 503 551 L 499 568 L 499 578 L 500 579 L 500 586 L 501 587 L 502 595 L 505 603 L 507 605 L 507 607 L 513 616 L 525 628 L 543 638 L 554 641 L 562 641 L 563 642 L 581 641 L 600 634 L 609 628 L 621 615 L 623 616 L 623 853 L 630 853 L 630 615 L 632 614 L 639 623 L 652 633 L 666 639 L 674 641 L 680 641 L 681 642 L 700 641 L 708 638 L 711 638 L 726 630 L 741 616 L 747 607 L 753 592 L 754 582 L 755 581 L 755 569 L 754 568 L 753 557 L 748 544 L 743 536 L 736 528 L 736 526 L 737 525 L 746 524 L 758 519 L 770 511 L 778 503 L 786 491 L 792 475 L 793 463 L 794 462 L 794 450 L 793 449 L 793 444 L 791 436 L 786 424 L 779 413 L 769 403 L 759 396 L 751 392 L 736 388 L 717 388 L 716 389 L 708 390 L 696 395 L 695 394 L 696 376 L 695 375 L 694 365 L 686 346 L 680 338 L 667 326 L 652 318 L 635 314 Z M 609 324 L 617 323 L 618 322 L 637 322 L 651 326 L 659 330 L 668 337 L 677 347 L 684 359 L 688 374 L 687 396 L 683 408 L 678 416 L 679 418 L 692 406 L 703 400 L 717 396 L 735 396 L 736 397 L 740 397 L 755 403 L 769 414 L 777 424 L 785 443 L 785 447 L 786 448 L 786 467 L 785 468 L 784 476 L 777 491 L 762 507 L 746 516 L 738 518 L 721 519 L 720 518 L 709 517 L 709 519 L 716 522 L 726 529 L 734 537 L 740 546 L 744 554 L 747 565 L 747 583 L 743 597 L 734 612 L 725 621 L 716 627 L 700 633 L 693 633 L 692 634 L 674 633 L 660 628 L 652 623 L 643 615 L 634 602 L 629 587 L 628 576 L 626 576 L 625 588 L 619 604 L 607 619 L 594 628 L 580 633 L 561 634 L 545 630 L 532 623 L 521 613 L 515 605 L 511 597 L 507 583 L 507 566 L 510 554 L 515 544 L 520 537 L 529 528 L 536 523 L 546 518 L 545 517 L 534 518 L 533 519 L 515 518 L 498 511 L 491 506 L 481 496 L 475 487 L 470 475 L 469 467 L 468 466 L 468 451 L 473 432 L 480 420 L 493 407 L 499 403 L 508 399 L 520 396 L 538 396 L 546 398 L 559 404 L 566 409 L 574 418 L 576 417 L 576 415 L 570 404 L 567 393 L 566 378 L 567 377 L 567 371 L 569 363 L 573 354 L 579 345 L 589 335 L 596 330 Z M 543 518 L 544 517 L 545 518 L 544 519 Z" fill="#004D3A" fill-rule="evenodd"/>
  <path d="M 623 312 L 622 313 L 611 314 L 595 320 L 584 327 L 573 338 L 566 348 L 560 362 L 558 370 L 558 376 L 557 377 L 557 387 L 558 388 L 558 392 L 557 393 L 540 387 L 518 387 L 501 392 L 486 401 L 472 416 L 464 431 L 459 451 L 459 464 L 460 465 L 461 475 L 466 489 L 476 504 L 489 516 L 502 523 L 514 526 L 516 528 L 508 538 L 502 550 L 498 566 L 498 581 L 499 582 L 499 588 L 502 599 L 510 614 L 520 625 L 519 626 L 520 625 L 532 634 L 549 641 L 560 642 L 561 643 L 575 643 L 576 642 L 585 641 L 602 634 L 611 628 L 621 617 L 622 618 L 622 854 L 623 855 L 631 855 L 632 853 L 632 840 L 631 839 L 632 838 L 631 836 L 631 829 L 632 828 L 632 816 L 631 815 L 631 811 L 632 810 L 632 778 L 631 777 L 632 773 L 632 687 L 631 686 L 631 681 L 632 680 L 632 619 L 631 617 L 632 616 L 641 626 L 650 633 L 663 639 L 679 643 L 695 643 L 711 639 L 728 630 L 740 619 L 746 611 L 754 593 L 755 585 L 756 584 L 756 565 L 752 550 L 746 538 L 737 527 L 738 526 L 747 525 L 759 520 L 773 510 L 781 501 L 790 485 L 793 476 L 794 466 L 795 465 L 795 449 L 790 430 L 785 420 L 778 410 L 767 400 L 749 390 L 737 387 L 716 387 L 704 390 L 697 393 L 696 392 L 697 391 L 697 373 L 696 372 L 695 364 L 689 349 L 684 341 L 677 333 L 669 326 L 653 317 L 638 313 Z M 619 313 L 635 313 L 652 317 L 667 325 L 681 338 L 687 346 L 695 365 L 696 375 L 697 376 L 696 394 L 699 392 L 717 387 L 736 387 L 751 391 L 759 395 L 769 402 L 780 413 L 787 424 L 792 436 L 794 444 L 794 449 L 795 450 L 795 462 L 794 463 L 793 475 L 788 489 L 779 503 L 770 512 L 758 520 L 746 525 L 737 526 L 737 528 L 741 532 L 749 544 L 754 557 L 755 568 L 756 569 L 756 581 L 755 582 L 754 592 L 750 603 L 742 616 L 726 631 L 711 639 L 708 639 L 700 642 L 681 643 L 680 642 L 674 642 L 666 640 L 652 634 L 639 624 L 631 615 L 631 853 L 630 854 L 623 854 L 622 853 L 622 616 L 605 632 L 596 637 L 581 642 L 573 642 L 572 643 L 554 642 L 543 639 L 525 629 L 512 616 L 506 607 L 506 605 L 504 603 L 501 595 L 500 587 L 499 586 L 499 579 L 498 578 L 498 568 L 502 551 L 506 542 L 511 534 L 517 528 L 517 526 L 506 524 L 493 518 L 487 514 L 474 501 L 468 492 L 463 481 L 460 469 L 460 462 L 459 461 L 460 446 L 465 429 L 473 415 L 484 403 L 492 397 L 504 391 L 519 387 L 538 387 L 553 391 L 558 394 L 558 372 L 559 371 L 559 367 L 563 355 L 571 341 L 579 332 L 594 321 L 609 315 L 618 314 Z M 609 325 L 596 331 L 589 336 L 580 345 L 574 354 L 570 363 L 568 371 L 568 377 L 567 378 L 568 393 L 571 404 L 577 415 L 577 417 L 574 419 L 566 410 L 559 405 L 546 399 L 538 397 L 520 397 L 519 398 L 511 399 L 499 404 L 493 408 L 481 420 L 474 432 L 469 451 L 469 466 L 470 467 L 471 475 L 476 487 L 482 496 L 491 505 L 498 510 L 515 517 L 533 518 L 534 517 L 545 516 L 547 518 L 529 529 L 521 537 L 516 544 L 511 554 L 508 566 L 508 583 L 512 597 L 518 608 L 532 622 L 545 629 L 561 633 L 580 632 L 594 627 L 607 618 L 618 604 L 623 592 L 624 584 L 625 583 L 625 576 L 628 575 L 629 576 L 629 582 L 630 583 L 631 591 L 635 602 L 644 615 L 652 622 L 660 627 L 674 632 L 679 632 L 680 633 L 700 632 L 716 626 L 725 620 L 733 612 L 742 597 L 746 583 L 746 565 L 743 554 L 739 546 L 733 537 L 726 530 L 716 523 L 709 520 L 708 517 L 709 516 L 720 517 L 721 518 L 738 517 L 746 515 L 762 506 L 776 491 L 783 476 L 784 468 L 785 467 L 785 448 L 784 447 L 784 443 L 776 424 L 768 414 L 755 404 L 740 398 L 736 398 L 735 397 L 717 397 L 703 401 L 692 407 L 679 419 L 677 416 L 682 408 L 686 396 L 687 374 L 683 359 L 676 347 L 668 338 L 659 331 L 642 324 L 638 324 L 637 323 L 618 323 L 617 324 Z M 610 325 L 619 324 L 620 323 L 634 323 L 635 324 L 644 325 L 652 328 L 664 335 L 675 346 L 677 349 L 676 351 L 677 350 L 679 352 L 683 360 L 687 377 L 686 395 L 683 405 L 677 416 L 677 418 L 680 419 L 694 406 L 701 402 L 712 398 L 716 398 L 717 397 L 740 398 L 753 403 L 762 409 L 771 418 L 777 426 L 784 444 L 785 464 L 784 465 L 783 474 L 778 487 L 771 497 L 764 504 L 752 512 L 741 516 L 717 517 L 709 515 L 707 518 L 708 520 L 717 524 L 724 529 L 734 539 L 740 548 L 744 558 L 744 562 L 746 567 L 746 580 L 745 581 L 745 586 L 743 594 L 734 610 L 722 622 L 714 627 L 706 629 L 703 631 L 693 632 L 692 633 L 680 633 L 665 629 L 652 622 L 642 612 L 634 599 L 630 587 L 629 575 L 625 575 L 623 591 L 617 605 L 613 611 L 603 621 L 597 625 L 587 630 L 580 632 L 561 633 L 545 629 L 535 624 L 520 610 L 512 596 L 508 581 L 508 569 L 509 568 L 509 563 L 511 555 L 517 543 L 519 541 L 520 542 L 519 541 L 526 532 L 537 524 L 544 520 L 546 520 L 547 517 L 545 515 L 538 517 L 518 517 L 507 514 L 497 509 L 478 490 L 470 470 L 470 464 L 469 463 L 470 446 L 472 438 L 477 427 L 483 418 L 491 410 L 506 401 L 521 397 L 538 397 L 546 399 L 557 404 L 564 409 L 574 419 L 577 417 L 577 415 L 571 404 L 568 392 L 568 384 L 567 383 L 568 372 L 571 361 L 578 348 L 588 337 L 600 329 Z M 850 686 L 837 685 L 836 684 L 806 684 L 805 685 L 792 686 L 791 687 L 770 691 L 753 697 L 732 707 L 707 724 L 681 750 L 680 749 L 681 751 L 675 758 L 666 772 L 657 790 L 650 809 L 646 825 L 645 836 L 644 837 L 644 855 L 670 855 L 671 854 L 692 852 L 705 848 L 709 848 L 741 836 L 763 824 L 778 813 L 779 814 L 778 813 L 790 803 L 806 786 L 807 787 L 808 786 L 807 785 L 819 770 L 828 755 L 836 739 L 843 720 L 846 706 L 848 702 Z M 403 687 L 404 688 L 405 702 L 409 714 L 409 717 L 414 732 L 424 753 L 444 783 L 471 810 L 489 823 L 508 834 L 526 842 L 544 848 L 565 852 L 566 853 L 581 854 L 582 855 L 608 855 L 609 854 L 609 838 L 608 837 L 606 820 L 601 805 L 601 802 L 591 781 L 591 779 L 576 755 L 567 744 L 551 728 L 537 717 L 521 707 L 500 697 L 468 687 L 463 687 L 462 686 L 448 685 L 447 684 L 417 684 L 416 685 L 409 685 Z M 414 696 L 420 694 L 445 694 L 446 695 L 454 695 L 455 696 L 460 696 L 461 697 L 478 700 L 490 705 L 498 707 L 507 712 L 511 713 L 523 720 L 541 733 L 557 748 L 576 773 L 588 796 L 595 816 L 596 822 L 595 823 L 586 811 L 574 799 L 564 791 L 538 777 L 535 777 L 532 782 L 550 791 L 567 803 L 578 814 L 586 824 L 597 844 L 596 845 L 590 845 L 589 844 L 569 843 L 554 839 L 550 839 L 531 833 L 500 818 L 480 804 L 455 780 L 436 754 L 422 725 Z M 838 696 L 832 722 L 817 754 L 798 780 L 777 801 L 753 818 L 732 829 L 722 833 L 690 842 L 677 843 L 676 844 L 665 844 L 664 845 L 657 845 L 656 844 L 667 824 L 683 806 L 703 791 L 721 782 L 718 777 L 715 777 L 692 789 L 680 798 L 666 812 L 658 824 L 657 823 L 659 813 L 661 810 L 664 799 L 677 773 L 692 753 L 712 733 L 735 717 L 753 708 L 769 703 L 772 701 L 793 697 L 794 696 L 808 695 L 809 694 L 833 694 Z M 622 444 L 604 450 L 591 462 L 588 466 L 583 477 L 581 490 L 582 491 L 582 500 L 584 506 L 589 516 L 596 524 L 602 529 L 610 533 L 623 536 L 631 536 L 644 533 L 653 528 L 660 522 L 665 516 L 671 504 L 672 495 L 673 494 L 673 486 L 672 485 L 672 480 L 667 467 L 663 461 L 653 452 L 640 446 L 630 445 L 629 444 Z M 620 455 L 633 455 L 645 459 L 656 469 L 654 471 L 656 470 L 662 483 L 662 496 L 661 497 L 661 501 L 657 509 L 649 518 L 643 522 L 634 525 L 620 525 L 609 521 L 596 508 L 592 497 L 592 483 L 597 471 L 608 460 Z M 585 473 L 586 472 L 587 474 L 586 475 Z M 654 825 L 655 824 L 656 825 L 655 826 Z M 806 786 L 807 785 L 808 786 L 807 787 Z M 739 713 L 740 712 L 741 713 L 740 714 Z M 741 712 L 742 711 L 743 712 L 742 713 Z M 597 825 L 598 824 L 599 825 L 598 826 Z M 533 782 L 534 781 L 535 782 L 534 783 Z M 579 778 L 580 777 L 581 778 L 580 779 Z M 578 776 L 579 775 L 580 776 L 579 777 Z M 586 471 L 587 470 L 588 471 L 587 472 Z M 664 467 L 665 466 L 666 467 L 665 468 Z" fill="#004D3A" fill-rule="evenodd"/>
</svg>
