<svg xmlns="http://www.w3.org/2000/svg" width="1254" height="1254" viewBox="179 155 896 896">
  <title>dress form icon</title>
  <desc>Transparent-background SVG traced directly from the supplied icon without changing composition or details.</desc>
  <path d="M 604 274 L 603 275 L 596 275 L 596 299 L 595 300 L 595 304 L 588 314 L 578 320 L 538 335 L 534 339 L 533 342 L 532 362 L 533 363 L 535 377 L 540 390 L 557 423 L 557 425 L 564 440 L 570 464 L 571 482 L 570 483 L 569 498 L 565 510 L 547 544 L 537 571 L 537 575 L 534 586 L 534 592 L 533 593 L 533 602 L 532 603 L 532 622 L 533 623 L 534 637 L 542 642 L 573 650 L 600 652 L 601 653 L 617 653 L 618 654 L 618 676 L 619 673 L 622 676 L 622 678 L 622 654 L 625 653 L 632 655 L 632 729 L 631 730 L 623 730 L 622 727 L 622 731 L 621 732 L 633 732 L 637 731 L 634 729 L 636 728 L 636 674 L 635 673 L 636 654 L 637 653 L 651 653 L 652 652 L 673 651 L 674 650 L 680 650 L 681 649 L 695 647 L 716 640 L 720 636 L 721 633 L 722 608 L 721 607 L 721 594 L 720 593 L 718 577 L 709 549 L 691 515 L 686 502 L 684 494 L 684 489 L 683 488 L 683 469 L 684 468 L 685 457 L 691 437 L 698 422 L 698 420 L 712 394 L 719 376 L 720 368 L 721 367 L 721 360 L 722 359 L 722 350 L 721 349 L 720 340 L 717 336 L 704 330 L 699 329 L 674 319 L 667 315 L 661 309 L 658 301 L 657 275 L 628 275 L 627 274 L 626 275 L 605 275 Z M 656 275 L 657 277 L 656 278 L 654 277 L 654 299 L 656 307 L 660 314 L 674 323 L 712 337 L 716 341 L 718 348 L 718 362 L 717 363 L 716 373 L 711 387 L 691 426 L 690 431 L 686 439 L 686 442 L 683 449 L 683 453 L 681 458 L 680 470 L 679 471 L 679 487 L 680 488 L 680 493 L 684 509 L 706 552 L 715 581 L 716 591 L 717 592 L 717 600 L 718 601 L 717 633 L 713 637 L 709 639 L 696 643 L 692 643 L 681 646 L 667 647 L 666 648 L 640 649 L 639 650 L 598 649 L 597 648 L 580 647 L 579 646 L 574 646 L 573 645 L 568 645 L 567 644 L 554 642 L 541 637 L 537 633 L 537 629 L 536 628 L 536 600 L 537 599 L 537 591 L 538 590 L 538 585 L 541 572 L 546 556 L 555 537 L 562 526 L 562 524 L 571 505 L 574 492 L 575 475 L 574 474 L 574 466 L 573 465 L 572 454 L 566 435 L 564 432 L 561 422 L 543 387 L 537 370 L 537 365 L 536 364 L 536 346 L 537 342 L 541 338 L 547 335 L 571 327 L 588 319 L 592 316 L 596 311 L 599 304 L 600 280 L 602 278 L 647 278 L 644 277 L 646 275 Z M 623 210 L 618 212 L 612 218 L 610 224 L 612 236 L 618 242 L 618 256 L 621 256 L 622 255 L 622 243 L 621 239 L 615 233 L 614 224 L 616 220 L 623 214 L 631 214 L 633 215 L 638 220 L 640 225 L 640 230 L 638 234 L 632 240 L 632 255 L 636 256 L 636 242 L 642 235 L 643 232 L 643 221 L 641 217 L 636 212 L 631 210 Z M 575 931 L 569 957 L 562 973 L 564 971 L 566 974 L 573 956 L 573 952 L 577 941 L 577 936 L 575 938 L 574 937 Z M 560 944 L 559 950 L 557 954 L 557 956 L 558 954 L 559 957 L 557 959 L 556 958 L 550 971 L 547 974 L 545 974 L 541 970 L 543 971 L 547 978 L 546 980 L 544 980 L 543 978 L 543 980 L 548 979 L 552 975 L 559 962 L 559 959 L 561 956 L 563 948 L 561 949 L 559 948 Z M 622 680 L 622 685 L 620 686 L 620 689 L 619 690 L 618 689 L 618 685 L 618 711 L 619 709 L 622 713 Z M 567 913 L 562 936 L 563 934 L 565 936 L 565 939 L 569 922 L 569 917 L 570 915 L 568 917 Z M 666 896 L 668 900 L 666 902 L 664 900 L 669 910 L 672 921 L 672 918 L 674 916 L 675 918 L 671 905 Z M 599 860 L 591 865 L 586 870 L 588 869 L 590 871 L 589 873 L 596 866 L 601 863 Z M 636 783 L 635 787 L 634 788 L 633 787 L 633 801 L 633 797 L 635 795 L 635 793 L 636 792 L 637 793 L 637 811 L 635 815 L 634 814 L 634 825 L 634 821 L 637 817 L 638 818 L 638 828 L 637 785 Z M 640 743 L 638 744 L 636 741 L 637 740 L 635 742 L 625 742 L 628 745 L 624 746 L 631 746 L 632 749 L 635 748 L 636 749 L 636 753 L 636 746 Z M 618 750 L 618 764 L 618 762 L 619 761 L 620 762 L 620 766 L 618 767 L 618 775 L 620 775 L 621 777 L 622 763 L 620 761 L 620 753 L 618 752 Z M 702 968 L 705 973 L 703 975 L 700 972 L 706 979 L 710 980 L 711 976 L 714 973 L 713 974 L 711 971 L 715 969 L 710 971 L 708 974 L 706 974 Z M 607 882 L 614 879 L 631 878 L 625 878 L 622 875 L 616 875 L 607 878 L 609 878 L 611 880 Z M 723 969 L 721 969 L 723 969 L 725 971 L 723 973 L 719 972 L 721 972 L 726 977 L 726 984 L 720 990 L 724 992 L 721 994 L 727 990 L 730 983 L 730 979 L 730 983 L 728 987 L 726 984 L 726 977 L 725 976 L 727 973 L 729 977 L 729 975 Z M 684 952 L 684 956 L 683 957 L 681 956 L 687 973 L 686 969 L 688 967 L 690 970 L 688 967 L 684 955 Z M 678 886 L 679 890 L 676 891 L 682 909 L 683 906 L 681 905 L 682 904 L 681 902 L 682 898 L 684 902 L 684 904 L 682 895 Z M 643 840 L 639 833 L 639 831 L 638 833 L 635 832 L 639 841 L 638 842 L 617 842 L 627 842 L 628 843 L 634 843 L 635 842 L 636 843 L 642 839 Z M 694 945 L 693 948 L 691 946 L 691 950 L 695 962 L 695 957 L 696 956 L 698 958 L 698 959 Z M 678 928 L 678 931 L 677 932 L 675 931 L 678 944 L 678 942 L 680 940 L 681 941 L 681 943 Z M 585 910 L 584 911 L 581 910 L 578 920 L 579 918 L 581 920 L 581 923 Z M 688 918 L 688 921 L 687 922 L 685 921 L 685 925 L 688 933 L 688 929 L 689 928 L 690 930 Z M 608 277 L 610 275 L 617 275 L 619 277 L 618 278 L 609 278 Z M 559 979 L 553 986 L 554 985 L 556 987 L 554 990 L 562 981 L 561 982 L 558 980 Z M 551 987 L 545 991 L 541 991 L 545 992 L 541 995 L 550 993 L 552 991 L 551 992 L 549 989 Z M 598 884 L 594 887 L 596 891 L 601 886 L 600 887 Z M 568 961 L 570 964 L 567 969 L 565 967 Z M 583 874 L 574 889 L 573 893 L 574 891 L 576 895 L 578 891 L 578 888 L 576 885 Z M 615 829 L 615 832 L 612 837 L 613 836 L 616 838 L 618 834 L 618 831 L 616 832 Z M 572 946 L 574 951 L 571 954 L 570 951 Z M 694 978 L 696 981 L 694 983 L 692 982 L 698 989 L 697 988 L 699 984 L 701 986 Z M 639 876 L 642 879 L 640 880 L 645 882 L 648 879 Z M 589 894 L 584 903 L 586 900 L 588 903 L 590 899 L 588 896 Z M 632 761 L 632 776 L 632 771 L 634 769 L 634 763 Z M 656 865 L 665 873 L 662 870 L 665 868 L 667 870 L 661 864 L 660 864 L 662 866 L 660 868 Z M 652 854 L 644 855 L 645 856 L 644 859 L 637 858 L 641 858 L 649 861 L 645 859 L 648 858 L 648 856 Z M 620 803 L 619 806 L 618 804 L 618 809 L 617 810 L 616 806 L 616 816 L 616 811 L 617 810 L 618 813 L 620 811 Z M 620 654 L 621 657 L 619 660 L 618 659 L 618 655 Z M 598 843 L 596 846 L 599 849 L 600 852 L 599 848 L 602 846 L 598 845 L 597 844 Z M 629 277 L 630 276 L 635 276 L 636 277 L 635 278 L 630 278 Z M 551 970 L 552 968 L 555 969 L 553 972 Z M 619 690 L 620 691 L 620 695 L 619 696 L 618 695 L 618 691 Z M 573 943 L 574 944 L 573 947 L 572 946 Z M 610 879 L 611 878 L 614 879 L 613 880 Z M 614 878 L 615 877 L 618 878 L 617 879 Z M 616 261 L 617 260 L 618 261 L 623 260 L 619 260 L 618 259 Z M 534 972 L 532 973 L 530 972 L 528 974 L 529 975 L 528 977 L 531 973 Z M 686 966 L 687 965 L 688 967 L 687 968 Z M 621 877 L 622 876 L 624 877 L 623 878 Z M 575 887 L 576 886 L 577 888 L 576 889 Z M 596 845 L 597 844 L 598 846 L 597 847 Z M 690 516 L 691 515 L 692 517 L 691 518 Z M 683 497 L 684 496 L 685 498 L 684 499 Z M 682 492 L 683 491 L 684 493 L 683 494 Z M 570 901 L 569 906 L 570 903 L 572 906 L 571 912 L 573 903 L 572 905 L 570 903 Z M 621 846 L 630 846 L 626 844 L 623 844 L 626 844 L 627 845 L 626 846 Z M 554 985 L 555 984 L 556 985 L 555 986 Z M 695 982 L 696 981 L 697 982 L 696 983 Z M 528 974 L 529 973 L 530 974 L 529 975 Z M 529 973 L 530 972 L 531 973 L 530 974 Z M 721 990 L 722 989 L 723 990 L 722 991 Z M 708 979 L 709 978 L 710 979 L 709 980 Z M 710 972 L 711 971 L 712 972 L 711 973 Z M 683 957 L 684 956 L 685 957 L 684 958 Z M 569 954 L 570 953 L 571 954 L 570 955 Z M 687 923 L 688 922 L 689 923 L 688 924 Z M 669 906 L 670 905 L 671 906 L 670 907 Z M 668 904 L 669 903 L 670 904 L 669 905 Z M 667 901 L 668 900 L 669 901 L 668 902 Z M 587 897 L 588 896 L 589 897 L 588 898 Z M 598 887 L 599 886 L 600 887 L 599 888 Z M 597 885 L 598 884 L 599 885 L 598 886 Z M 645 879 L 646 878 L 647 879 L 646 880 Z M 574 890 L 575 889 L 576 890 L 575 891 Z M 613 836 L 614 835 L 615 836 L 614 837 Z M 691 518 L 692 517 L 693 518 L 692 519 Z M 689 514 L 690 513 L 691 514 L 690 515 Z M 715 337 L 716 336 L 717 337 L 716 338 Z M 711 335 L 712 334 L 713 335 L 712 336 Z M 553 330 L 554 329 L 555 330 L 554 331 Z M 596 276 L 597 275 L 598 276 L 597 277 Z M 643 259 L 647 261 L 649 264 L 646 260 Z M 533 969 L 529 970 L 525 975 L 529 970 Z M 693 941 L 693 942 L 693 943 L 693 942 Z M 677 924 L 677 925 L 677 926 L 677 925 Z M 655 888 L 656 889 L 657 890 L 656 889 Z M 636 879 L 637 879 L 638 879 L 637 879 Z M 612 859 L 609 859 L 605 861 L 609 859 Z M 614 858 L 615 858 L 616 858 L 615 858 Z M 653 846 L 655 847 L 655 850 L 655 847 Z M 657 844 L 658 845 L 658 849 L 658 845 Z M 614 743 L 615 744 L 616 745 L 615 744 Z M 641 739 L 641 740 L 641 741 L 641 740 Z" fill="#004D3A" fill-rule="evenodd" stroke="#004D3A" stroke-width="5" stroke-linejoin="round" stroke-linecap="round"/>
  <path d="M 596 273 L 595 274 L 595 297 L 594 298 L 594 303 L 591 309 L 586 314 L 577 319 L 539 333 L 534 337 L 531 344 L 531 366 L 534 378 L 539 391 L 556 424 L 556 426 L 561 436 L 565 448 L 568 465 L 569 466 L 569 489 L 568 490 L 567 500 L 562 514 L 551 533 L 543 550 L 540 560 L 538 563 L 538 566 L 534 578 L 534 583 L 532 590 L 532 598 L 531 599 L 531 630 L 533 637 L 537 641 L 553 647 L 565 649 L 570 651 L 594 653 L 595 654 L 613 654 L 617 656 L 617 729 L 613 732 L 611 736 L 611 740 L 613 744 L 617 747 L 616 749 L 617 750 L 617 754 L 616 755 L 616 794 L 615 795 L 614 829 L 611 837 L 608 840 L 598 841 L 595 844 L 594 852 L 598 858 L 584 870 L 578 878 L 572 890 L 568 902 L 566 913 L 564 917 L 563 926 L 561 931 L 560 940 L 557 948 L 556 955 L 549 970 L 546 973 L 543 969 L 539 967 L 532 967 L 528 969 L 523 975 L 522 983 L 524 989 L 529 994 L 537 997 L 546 996 L 555 991 L 562 984 L 568 974 L 577 947 L 586 910 L 594 895 L 604 885 L 610 882 L 613 882 L 617 880 L 631 879 L 632 880 L 638 880 L 648 884 L 659 894 L 664 902 L 671 921 L 671 924 L 674 932 L 675 941 L 681 960 L 680 965 L 683 966 L 689 980 L 697 990 L 705 995 L 712 997 L 717 997 L 723 995 L 728 991 L 731 986 L 731 976 L 729 972 L 722 967 L 714 967 L 709 970 L 708 972 L 704 969 L 696 949 L 692 928 L 690 923 L 690 919 L 682 891 L 672 873 L 662 863 L 656 859 L 660 852 L 659 844 L 655 841 L 646 841 L 643 838 L 639 828 L 637 747 L 641 744 L 643 738 L 642 734 L 637 729 L 637 656 L 644 654 L 667 653 L 668 652 L 675 652 L 676 651 L 682 651 L 683 650 L 697 648 L 717 641 L 722 635 L 722 628 L 723 627 L 723 600 L 722 599 L 722 591 L 721 590 L 719 575 L 710 548 L 689 507 L 685 492 L 684 473 L 685 472 L 686 459 L 693 435 L 696 430 L 699 421 L 714 393 L 721 374 L 721 370 L 723 364 L 723 346 L 721 339 L 716 334 L 675 318 L 664 311 L 661 306 L 659 299 L 659 274 L 658 273 Z M 604 273 L 605 274 L 626 274 L 627 273 L 628 274 L 657 274 L 658 275 L 659 301 L 662 309 L 667 314 L 674 318 L 699 328 L 704 329 L 717 335 L 721 340 L 722 349 L 723 350 L 723 359 L 722 360 L 722 367 L 721 368 L 720 376 L 713 394 L 699 420 L 699 422 L 692 437 L 687 453 L 686 461 L 685 462 L 685 468 L 684 469 L 684 488 L 685 489 L 685 494 L 687 502 L 692 513 L 691 517 L 694 518 L 710 549 L 719 577 L 721 593 L 722 594 L 722 607 L 723 608 L 722 633 L 721 636 L 716 641 L 695 648 L 691 648 L 680 651 L 674 651 L 673 652 L 652 653 L 651 654 L 637 654 L 637 667 L 636 668 L 636 673 L 637 674 L 637 728 L 635 729 L 638 731 L 633 733 L 621 733 L 620 732 L 622 726 L 623 729 L 631 729 L 631 655 L 623 654 L 623 678 L 622 679 L 619 674 L 619 676 L 618 677 L 617 676 L 617 654 L 601 654 L 600 653 L 573 651 L 542 643 L 536 640 L 533 637 L 532 623 L 531 622 L 531 603 L 532 602 L 532 593 L 533 592 L 533 586 L 534 585 L 536 571 L 546 544 L 564 510 L 568 498 L 569 483 L 570 482 L 569 464 L 563 440 L 556 425 L 556 423 L 539 390 L 534 377 L 532 363 L 531 362 L 532 342 L 533 339 L 538 334 L 578 319 L 588 313 L 592 308 L 595 299 L 595 275 L 596 274 L 603 274 Z M 656 276 L 646 276 L 645 277 L 647 277 L 648 278 L 647 279 L 602 279 L 601 280 L 600 304 L 597 311 L 592 317 L 588 320 L 571 328 L 547 336 L 541 339 L 538 342 L 537 346 L 538 370 L 544 387 L 562 422 L 565 432 L 567 435 L 573 454 L 574 465 L 575 466 L 575 474 L 576 475 L 575 492 L 572 505 L 563 524 L 563 526 L 556 537 L 547 556 L 542 572 L 539 585 L 539 590 L 538 591 L 538 599 L 537 600 L 537 628 L 538 629 L 538 633 L 541 636 L 554 641 L 567 643 L 568 644 L 573 644 L 574 645 L 579 645 L 580 646 L 597 647 L 598 648 L 639 649 L 640 648 L 666 647 L 667 646 L 681 645 L 682 644 L 696 642 L 709 638 L 716 633 L 717 601 L 716 600 L 716 592 L 715 591 L 714 581 L 705 552 L 683 509 L 679 493 L 679 488 L 678 487 L 678 471 L 679 470 L 680 458 L 682 453 L 682 449 L 685 442 L 685 439 L 689 431 L 690 426 L 710 387 L 715 373 L 716 363 L 717 362 L 717 348 L 716 347 L 716 343 L 712 338 L 674 324 L 668 321 L 659 314 L 655 307 L 653 299 L 653 277 L 654 276 L 656 277 Z M 602 280 L 652 280 L 653 281 L 652 282 L 653 301 L 657 312 L 667 321 L 682 328 L 708 337 L 714 340 L 716 344 L 717 357 L 716 358 L 715 372 L 710 386 L 691 423 L 682 448 L 679 461 L 679 467 L 678 468 L 678 489 L 679 490 L 679 495 L 681 503 L 688 521 L 699 540 L 705 553 L 712 574 L 714 587 L 715 588 L 715 594 L 716 595 L 716 606 L 717 607 L 716 632 L 714 635 L 699 641 L 679 644 L 678 645 L 663 646 L 662 647 L 652 647 L 651 648 L 603 648 L 602 647 L 591 647 L 590 646 L 583 646 L 582 645 L 576 645 L 564 642 L 559 642 L 546 638 L 540 635 L 538 632 L 537 604 L 538 603 L 538 594 L 539 593 L 541 577 L 550 550 L 568 516 L 573 502 L 574 494 L 575 493 L 575 487 L 576 486 L 576 471 L 575 470 L 575 463 L 574 462 L 573 453 L 569 442 L 569 439 L 567 436 L 562 421 L 560 419 L 560 417 L 544 386 L 539 372 L 538 362 L 537 361 L 537 348 L 538 347 L 538 343 L 540 341 L 541 342 L 540 341 L 542 339 L 579 325 L 589 320 L 597 312 L 601 300 L 601 281 Z M 622 209 L 616 212 L 612 216 L 609 223 L 610 234 L 612 238 L 617 243 L 617 253 L 616 254 L 617 255 L 608 258 L 604 262 L 603 267 L 604 268 L 609 268 L 612 264 L 626 264 L 627 265 L 641 264 L 647 270 L 651 266 L 650 262 L 642 256 L 638 256 L 637 255 L 637 243 L 643 236 L 645 229 L 644 220 L 638 212 L 632 209 Z M 637 860 L 643 860 L 654 865 L 669 880 L 676 894 L 675 897 L 674 895 L 676 901 L 677 899 L 678 900 L 677 905 L 677 903 L 678 902 L 679 903 L 678 908 L 679 906 L 680 907 L 679 910 L 681 911 L 683 918 L 684 927 L 687 936 L 689 948 L 691 952 L 691 956 L 695 966 L 701 976 L 709 982 L 712 982 L 712 978 L 715 974 L 717 973 L 721 974 L 725 979 L 725 983 L 720 989 L 718 990 L 710 990 L 704 987 L 694 976 L 690 968 L 684 950 L 680 929 L 671 901 L 664 890 L 659 885 L 661 884 L 659 885 L 650 878 L 643 875 L 636 874 L 633 872 L 634 871 L 634 865 Z M 616 860 L 619 865 L 619 872 L 617 874 L 613 874 L 612 873 L 613 874 L 612 875 L 608 874 L 610 875 L 603 878 L 595 884 L 589 891 L 581 905 L 576 920 L 568 955 L 559 977 L 551 986 L 546 989 L 536 990 L 532 988 L 529 984 L 529 978 L 531 975 L 536 973 L 541 977 L 542 982 L 545 982 L 552 977 L 560 963 L 565 943 L 567 939 L 567 935 L 570 926 L 570 921 L 574 904 L 582 884 L 590 873 L 597 867 L 605 862 L 611 860 Z M 624 748 L 629 748 L 630 749 L 631 799 L 632 800 L 632 819 L 631 823 L 632 820 L 633 821 L 633 831 L 637 840 L 636 841 L 618 841 L 617 840 L 620 832 L 620 824 L 621 823 L 623 771 L 624 770 L 625 772 L 625 770 L 623 769 L 623 749 Z M 623 209 L 631 209 L 636 211 L 642 217 L 644 221 L 644 232 L 642 237 L 637 242 L 637 256 L 636 257 L 633 257 L 631 255 L 631 240 L 637 234 L 639 230 L 639 225 L 637 220 L 631 215 L 623 215 L 617 220 L 615 224 L 616 233 L 622 239 L 623 243 L 623 255 L 621 257 L 617 256 L 617 242 L 611 236 L 609 224 L 611 218 L 618 211 Z M 624 215 L 630 215 L 634 217 L 636 219 L 639 226 L 637 233 L 631 239 L 631 247 L 629 250 L 624 250 L 623 249 L 623 239 L 617 234 L 615 229 L 616 222 L 620 217 Z M 624 655 L 629 655 L 630 656 L 630 721 L 631 722 L 630 726 L 631 728 L 630 729 L 624 729 L 623 728 L 623 656 Z M 601 848 L 602 847 L 652 847 L 653 851 L 650 853 L 605 853 L 601 851 Z M 563 947 L 564 948 L 562 956 L 560 959 L 560 962 L 553 975 L 547 980 L 544 976 L 544 974 L 547 973 L 551 968 L 553 971 L 554 969 L 552 969 L 551 967 L 555 958 L 558 957 L 558 955 L 557 957 L 556 956 L 558 947 L 559 946 L 560 948 Z M 636 782 L 638 785 L 638 812 L 639 813 L 639 828 L 638 829 L 637 828 L 637 818 L 635 821 L 635 825 L 634 826 L 633 825 L 633 814 L 634 813 L 635 814 L 636 811 L 636 793 L 633 802 L 632 801 L 632 787 L 633 786 L 634 787 Z M 622 679 L 623 680 L 623 713 L 622 714 L 619 710 L 618 712 L 617 711 L 617 685 L 618 684 L 619 685 L 619 689 L 619 686 L 621 685 L 621 680 Z M 567 912 L 568 916 L 570 917 L 570 922 L 569 923 L 567 936 L 565 940 L 564 936 L 563 935 L 562 937 L 561 934 L 564 924 L 564 920 Z M 618 749 L 619 752 L 621 753 L 621 761 L 623 763 L 622 767 L 623 770 L 621 778 L 620 776 L 617 775 L 617 767 L 619 766 L 619 762 L 619 764 L 618 765 L 617 764 L 617 750 Z M 665 900 L 666 901 L 667 900 L 670 901 L 675 913 L 675 916 L 673 918 L 672 922 L 664 902 Z M 625 741 L 635 741 L 636 740 L 640 744 L 637 746 L 637 753 L 636 754 L 635 753 L 635 749 L 632 750 L 631 747 L 624 747 L 623 746 L 627 745 L 624 742 Z M 618 737 L 620 735 L 634 735 L 636 737 L 636 739 L 634 741 L 620 741 L 618 739 Z M 606 878 L 616 874 L 622 874 L 624 876 L 622 877 L 624 876 L 632 878 L 631 879 L 620 879 L 619 880 L 614 880 L 613 879 L 610 880 Z M 599 859 L 602 863 L 596 867 L 590 873 L 586 869 L 591 864 Z M 679 887 L 683 895 L 682 899 L 683 904 L 682 905 L 684 906 L 682 910 L 675 891 L 678 890 Z M 684 951 L 689 965 L 688 968 L 687 966 L 688 968 L 686 972 L 680 957 L 681 955 L 684 957 L 683 956 L 683 952 Z M 704 970 L 706 973 L 708 973 L 710 970 L 712 971 L 711 972 L 712 971 L 714 974 L 710 981 L 706 980 L 701 975 L 702 973 L 703 974 L 704 973 L 703 972 Z M 694 944 L 698 955 L 698 957 L 697 958 L 696 957 L 696 962 L 695 963 L 693 960 L 693 957 L 690 950 L 690 946 L 691 945 L 693 947 Z M 574 933 L 575 937 L 576 935 L 578 936 L 578 941 L 574 952 L 572 948 L 573 944 L 573 946 L 572 947 L 571 946 L 571 942 Z M 678 927 L 681 936 L 681 940 L 678 945 L 674 933 L 675 930 L 677 931 Z M 688 917 L 691 927 L 691 930 L 690 931 L 689 929 L 689 933 L 688 934 L 686 932 L 686 929 L 684 925 L 684 921 L 685 920 L 687 921 Z M 585 909 L 586 911 L 581 924 L 580 920 L 578 918 L 578 915 L 581 909 L 582 910 Z M 573 951 L 574 952 L 574 956 L 570 965 L 568 962 L 567 964 L 566 961 L 568 957 L 568 954 L 572 953 Z M 620 802 L 621 803 L 621 811 L 618 814 L 617 811 L 617 816 L 616 817 L 615 816 L 615 806 L 616 805 L 617 806 L 617 809 L 617 804 L 618 803 L 619 805 Z M 726 976 L 727 977 L 727 984 L 729 988 L 724 993 L 721 991 L 722 990 L 721 989 L 725 984 L 725 977 Z M 635 831 L 636 832 L 638 832 L 639 830 L 640 831 L 640 833 L 643 838 L 640 842 L 637 840 L 634 833 Z M 552 992 L 550 994 L 544 996 L 540 995 L 544 992 L 541 992 L 540 991 L 541 990 L 545 990 L 548 988 Z M 616 842 L 617 841 L 638 841 L 639 842 L 636 844 L 635 843 L 634 844 L 628 844 L 627 843 L 617 843 Z M 653 854 L 649 856 L 648 859 L 646 859 L 648 859 L 649 860 L 648 861 L 645 861 L 641 859 L 644 858 L 643 857 L 644 854 L 649 854 L 650 853 Z M 632 760 L 635 763 L 635 769 L 633 771 L 633 776 L 632 777 L 631 776 L 631 761 Z M 718 972 L 719 971 L 723 972 L 724 971 L 723 970 L 725 969 L 729 973 L 730 977 L 729 978 L 727 974 L 725 977 L 721 973 Z M 615 828 L 616 831 L 618 830 L 619 831 L 618 837 L 616 839 L 613 837 L 614 836 L 613 837 L 612 836 Z M 558 979 L 562 983 L 556 989 L 554 986 L 555 985 L 554 983 Z M 566 963 L 567 964 L 566 967 L 569 968 L 569 970 L 566 975 L 564 972 L 563 973 L 562 972 Z M 638 876 L 641 875 L 647 878 L 646 879 L 647 882 L 645 883 L 639 880 L 641 879 Z M 575 886 L 576 888 L 577 886 L 579 888 L 579 891 L 576 896 L 573 891 Z M 636 757 L 637 758 L 637 776 L 636 777 L 635 776 L 635 758 Z M 617 263 L 618 262 L 636 262 L 637 263 L 636 264 L 618 264 Z M 598 883 L 599 884 L 598 885 L 599 884 L 600 885 L 599 887 L 600 888 L 596 892 L 593 887 Z M 695 981 L 696 982 L 697 981 L 700 984 L 697 989 L 692 983 Z M 587 896 L 588 897 L 589 896 L 591 899 L 588 904 L 586 901 L 585 902 L 584 901 Z M 618 734 L 619 733 L 634 733 L 635 734 L 634 735 L 619 735 Z M 625 859 L 629 859 L 630 860 L 627 868 L 624 861 Z M 659 864 L 661 863 L 666 868 L 662 871 L 659 868 L 661 866 Z M 598 844 L 603 846 L 600 848 L 601 850 L 600 853 L 596 847 Z M 573 902 L 574 905 L 571 913 L 570 912 L 571 908 L 570 904 L 571 903 L 572 904 Z M 631 846 L 630 847 L 621 847 L 620 846 L 629 844 Z M 615 261 L 618 258 L 624 260 L 620 262 L 617 261 L 616 262 Z M 622 257 L 626 256 L 627 254 L 628 256 L 631 257 L 630 258 L 623 258 Z M 645 842 L 646 841 L 653 841 L 654 842 L 653 843 L 646 843 Z M 642 259 L 644 258 L 648 261 L 646 262 Z M 542 978 L 543 977 L 544 979 L 547 980 L 543 981 Z M 528 970 L 531 968 L 534 969 L 531 971 Z M 730 978 L 731 979 L 731 983 L 730 984 L 729 983 L 729 979 Z M 636 858 L 637 857 L 641 857 L 642 858 L 641 859 L 637 859 Z M 658 844 L 659 845 L 659 849 L 658 850 L 657 849 L 657 845 Z M 609 277 L 618 277 L 617 276 L 610 276 Z M 571 946 L 572 947 L 571 951 L 570 950 Z M 608 859 L 609 858 L 613 859 L 612 860 Z M 655 846 L 656 847 L 655 851 L 654 850 Z M 622 844 L 623 843 L 627 844 L 626 845 Z M 542 971 L 543 970 L 545 973 L 544 974 Z M 656 866 L 658 865 L 660 867 L 658 868 Z M 729 983 L 730 984 L 729 987 L 728 986 Z M 720 969 L 721 968 L 724 969 L 723 970 Z M 569 964 L 570 965 L 569 968 L 568 967 Z M 681 962 L 682 963 L 681 966 L 680 965 Z M 570 950 L 571 951 L 570 954 L 569 953 Z M 560 943 L 561 944 L 560 947 L 559 946 Z M 693 940 L 694 941 L 693 944 L 692 943 Z M 681 940 L 682 941 L 681 944 L 680 943 Z M 575 930 L 576 931 L 575 934 L 574 933 Z M 677 923 L 678 924 L 677 927 L 676 926 Z M 686 908 L 687 909 L 686 912 L 685 911 Z M 685 905 L 686 906 L 685 909 L 684 908 Z M 569 903 L 570 904 L 569 907 L 568 906 Z M 684 901 L 685 902 L 684 905 L 683 904 Z M 570 900 L 571 901 L 570 904 L 569 903 Z M 683 898 L 684 899 L 683 902 L 682 901 Z M 676 896 L 677 897 L 676 900 L 675 899 Z M 610 880 L 611 879 L 614 880 L 613 881 Z M 635 879 L 636 878 L 639 879 L 638 880 Z M 605 860 L 606 859 L 609 860 L 608 861 Z M 613 858 L 614 857 L 617 858 L 616 859 Z M 641 738 L 642 739 L 641 742 L 640 741 Z M 650 278 L 651 277 L 653 278 L 652 279 Z M 706 994 L 707 993 L 709 994 L 708 995 Z M 721 993 L 722 992 L 724 993 L 723 994 Z M 703 993 L 704 992 L 706 993 L 705 994 Z M 529 993 L 530 992 L 532 993 L 531 994 Z M 709 991 L 710 990 L 712 991 L 711 992 Z M 719 990 L 720 989 L 722 990 L 721 991 Z M 706 990 L 707 989 L 709 990 L 708 991 Z M 528 986 L 529 985 L 530 987 L 529 988 Z M 524 986 L 525 985 L 526 987 L 525 988 Z M 527 984 L 528 983 L 529 985 L 528 986 Z M 523 983 L 524 982 L 525 984 L 524 985 Z M 694 979 L 695 978 L 696 980 L 695 981 Z M 528 975 L 529 974 L 530 976 L 529 977 Z M 530 973 L 531 972 L 533 973 L 532 974 Z M 525 973 L 526 972 L 527 974 L 526 975 Z M 715 972 L 716 971 L 718 972 L 717 973 Z M 686 972 L 687 971 L 688 973 L 687 974 Z M 532 972 L 533 971 L 535 972 L 534 973 Z M 711 970 L 712 969 L 714 970 L 713 971 Z M 540 970 L 541 969 L 543 970 L 542 971 Z M 713 969 L 714 968 L 716 969 L 715 970 Z M 702 969 L 703 968 L 704 970 L 703 971 Z M 688 968 L 689 967 L 690 969 L 689 970 Z M 697 958 L 698 957 L 699 959 L 698 960 Z M 682 949 L 683 948 L 684 950 L 683 951 Z M 681 945 L 682 944 L 683 946 L 682 947 Z M 690 932 L 691 931 L 692 933 L 691 934 Z M 579 926 L 580 925 L 581 927 L 580 928 Z M 576 923 L 577 922 L 578 924 L 577 925 Z M 577 919 L 578 918 L 579 920 L 578 921 Z M 674 917 L 675 916 L 676 918 L 675 919 Z M 569 915 L 570 914 L 571 916 L 570 917 Z M 686 914 L 687 913 L 688 915 L 687 916 Z M 567 909 L 568 908 L 569 910 L 568 911 Z M 581 907 L 582 906 L 583 908 L 582 909 Z M 583 902 L 584 901 L 585 903 L 584 904 Z M 667 899 L 668 898 L 669 900 L 668 901 Z M 570 898 L 571 897 L 572 899 L 571 900 Z M 666 897 L 667 896 L 668 898 L 667 899 Z M 587 895 L 588 894 L 589 896 L 588 897 Z M 572 892 L 573 891 L 574 893 L 573 894 Z M 677 886 L 678 885 L 679 887 L 678 888 Z M 575 885 L 576 884 L 577 886 L 576 887 Z M 576 883 L 577 882 L 578 884 L 577 885 Z M 606 882 L 607 881 L 609 882 L 608 883 Z M 608 881 L 609 880 L 611 881 L 610 882 Z M 577 881 L 578 880 L 579 882 L 578 883 Z M 674 880 L 675 879 L 676 881 L 675 882 Z M 582 880 L 583 879 L 584 881 L 583 882 Z M 669 879 L 670 878 L 671 880 L 670 881 Z M 646 879 L 647 878 L 649 879 L 648 880 Z M 579 878 L 580 877 L 581 879 L 580 880 Z M 672 877 L 673 876 L 674 878 L 673 879 Z M 580 876 L 581 875 L 582 877 L 581 878 Z M 651 863 L 652 862 L 654 863 L 653 864 Z M 616 855 L 617 854 L 619 855 L 618 856 Z M 602 854 L 603 853 L 605 854 L 604 855 Z M 652 846 L 653 845 L 655 846 L 654 847 Z M 595 845 L 596 844 L 597 846 L 596 847 Z M 691 516 L 692 515 L 693 517 L 692 518 Z M 648 263 L 649 262 L 650 264 L 649 265 Z M 628 260 L 629 259 L 631 260 L 630 261 Z M 623 255 L 624 254 L 626 255 L 625 256 Z M 620 655 L 619 655 L 619 659 Z M 720 994 L 721 993 L 722 994 L 721 995 Z M 531 994 L 532 993 L 533 994 L 532 995 Z M 528 992 L 529 991 L 530 992 L 529 993 Z M 717 991 L 718 990 L 719 991 L 718 992 Z M 700 991 L 701 990 L 702 991 L 701 992 Z M 551 991 L 552 990 L 553 991 L 552 992 Z M 535 991 L 536 990 L 537 991 L 536 992 Z M 527 991 L 528 990 L 529 991 L 528 992 Z M 553 990 L 554 989 L 555 990 L 554 991 Z M 532 990 L 533 989 L 534 990 L 533 991 Z M 526 990 L 527 989 L 528 990 L 527 991 Z M 697 989 L 698 988 L 699 989 L 698 990 Z M 554 989 L 555 988 L 556 989 L 555 990 Z M 525 989 L 526 988 L 527 989 L 526 990 Z M 703 988 L 704 987 L 705 988 L 704 989 Z M 549 988 L 550 987 L 551 988 L 550 989 Z M 529 988 L 530 987 L 531 988 L 530 989 Z M 550 987 L 551 986 L 552 987 L 551 988 Z M 700 986 L 701 985 L 702 986 L 701 987 Z M 552 986 L 553 985 L 554 986 L 553 987 Z M 699 985 L 700 984 L 701 985 L 700 986 Z M 553 985 L 554 984 L 555 985 L 554 986 Z M 691 982 L 692 981 L 693 982 L 692 983 Z M 695 981 L 696 980 L 697 981 L 696 982 Z M 561 981 L 562 980 L 563 981 L 562 982 Z M 558 979 L 559 978 L 560 979 L 559 980 Z M 693 978 L 694 977 L 695 978 L 694 979 Z M 559 977 L 560 976 L 561 977 L 560 978 Z M 527 977 L 528 976 L 529 977 L 528 978 Z M 541 976 L 542 975 L 543 976 L 542 977 Z M 524 975 L 525 974 L 526 975 L 525 976 Z M 529 974 L 530 973 L 531 974 L 530 975 Z M 527 974 L 528 973 L 529 974 L 528 975 Z M 713 973 L 714 972 L 715 973 L 714 974 Z M 700 973 L 701 972 L 702 973 L 701 974 Z M 561 973 L 562 972 L 563 973 L 562 974 Z M 528 973 L 529 972 L 530 973 L 529 974 Z M 699 972 L 700 971 L 701 972 L 700 973 Z M 529 972 L 530 971 L 531 972 L 530 973 Z M 526 972 L 527 971 L 528 972 L 527 973 Z M 527 971 L 528 970 L 529 971 L 528 972 Z M 689 970 L 690 969 L 691 970 L 690 971 Z M 538 969 L 539 968 L 540 969 L 539 970 Z M 701 968 L 702 967 L 703 968 L 702 969 Z M 695 964 L 696 963 L 697 964 L 696 965 Z M 689 944 L 690 943 L 691 944 L 690 945 Z M 683 919 L 684 918 L 685 919 L 684 920 Z M 586 905 L 587 904 L 588 905 L 587 906 Z M 582 905 L 583 904 L 584 905 L 583 906 Z M 663 900 L 664 899 L 665 900 L 664 901 Z M 665 896 L 666 895 L 667 896 L 666 897 Z M 571 895 L 572 894 L 573 895 L 572 896 Z M 664 894 L 665 893 L 666 894 L 665 895 Z M 588 894 L 589 893 L 590 894 L 589 895 Z M 663 893 L 664 892 L 665 893 L 664 894 Z M 589 892 L 590 891 L 591 892 L 590 893 Z M 662 891 L 663 890 L 664 891 L 663 892 Z M 661 890 L 662 889 L 663 890 L 662 891 Z M 656 890 L 657 889 L 658 890 L 657 891 Z M 660 889 L 661 888 L 662 889 L 661 890 Z M 655 889 L 656 888 L 657 889 L 656 890 Z M 659 888 L 660 887 L 661 888 L 660 889 Z M 654 888 L 655 887 L 656 888 L 655 889 Z M 658 887 L 659 886 L 660 887 L 659 888 Z M 599 887 L 600 886 L 601 887 L 600 888 Z M 657 886 L 658 885 L 659 886 L 658 887 Z M 600 886 L 601 885 L 602 886 L 601 887 Z M 656 885 L 657 884 L 658 885 L 657 886 Z M 676 884 L 677 883 L 678 884 L 677 885 Z M 655 884 L 656 883 L 657 884 L 656 885 Z M 603 884 L 604 883 L 605 884 L 604 885 Z M 671 883 L 672 882 L 673 883 L 672 884 Z M 647 883 L 648 882 L 649 883 L 648 884 Z M 581 882 L 582 881 L 583 882 L 582 883 Z M 670 881 L 671 880 L 672 881 L 671 882 Z M 578 880 L 579 879 L 580 880 L 579 881 Z M 673 879 L 674 878 L 675 879 L 674 880 Z M 583 879 L 584 878 L 585 879 L 584 880 Z M 668 878 L 669 877 L 670 878 L 669 879 Z M 584 878 L 585 877 L 586 878 L 585 879 Z M 667 877 L 668 876 L 669 877 L 668 878 Z M 671 876 L 672 875 L 673 876 L 672 877 Z M 581 875 L 582 874 L 583 875 L 582 876 Z M 582 874 L 583 873 L 584 874 L 583 875 Z M 664 873 L 665 872 L 666 873 L 665 874 Z M 588 873 L 589 872 L 590 873 L 589 874 Z M 663 872 L 664 871 L 665 872 L 664 873 Z M 662 871 L 663 870 L 664 871 L 663 872 Z M 666 870 L 667 869 L 668 870 L 667 871 Z M 585 870 L 586 869 L 587 870 L 586 871 Z M 665 869 L 666 868 L 667 869 L 666 870 Z M 655 865 L 656 864 L 657 865 L 656 866 Z M 653 864 L 654 863 L 655 864 L 654 865 Z M 657 862 L 658 861 L 659 862 L 658 863 Z M 650 862 L 651 861 L 652 862 L 651 863 Z M 602 862 L 603 861 L 604 862 L 603 863 Z M 655 861 L 656 860 L 657 861 L 656 862 Z M 648 861 L 649 860 L 650 861 L 649 862 Z M 604 861 L 605 860 L 606 861 L 605 862 Z M 597 856 L 598 855 L 599 856 L 598 857 Z M 656 855 L 657 854 L 658 855 L 657 856 Z M 596 855 L 597 854 L 598 855 L 597 856 Z M 595 853 L 596 852 L 597 853 L 596 854 Z M 594 849 L 595 848 L 596 849 L 595 850 Z M 631 845 L 632 844 L 633 845 L 632 846 Z M 656 844 L 657 843 L 658 844 L 657 845 Z M 596 844 L 597 843 L 598 844 L 597 845 Z M 597 843 L 598 842 L 599 843 L 598 844 Z M 599 842 L 600 841 L 601 842 L 600 843 Z M 642 840 L 643 839 L 644 840 L 643 841 Z M 611 837 L 612 836 L 613 837 L 612 838 Z M 614 827 L 615 826 L 616 827 L 615 828 Z M 617 748 L 618 747 L 619 748 L 618 749 Z M 615 745 L 616 744 L 617 745 L 616 746 Z M 614 744 L 615 743 L 616 744 L 615 745 Z M 639 743 L 640 742 L 641 743 L 640 744 Z M 613 743 L 614 742 L 615 743 L 614 744 Z M 618 742 L 619 741 L 620 742 L 619 743 Z M 636 740 L 637 739 L 638 740 L 637 741 Z M 635 735 L 636 734 L 637 735 L 636 736 Z M 639 734 L 640 733 L 641 734 L 640 735 Z M 613 733 L 614 732 L 615 733 L 614 734 Z M 638 732 L 639 731 L 640 732 L 639 733 Z M 614 732 L 615 731 L 616 732 L 615 733 Z M 647 262 L 648 261 L 649 262 L 648 263 Z M 637 259 L 638 258 L 639 259 L 638 260 Z M 611 259 L 612 258 L 613 259 L 612 260 Z M 609 259 L 610 258 L 611 259 L 610 260 Z M 683 929 L 682 930 L 683 932 Z M 628 764 L 627 766 L 628 768 Z M 615 878 L 616 878 L 617 878 L 616 878 Z" fill="#004D3A" fill-rule="evenodd" stroke="#004D3A" stroke-width="5" stroke-linejoin="round" stroke-linecap="round"/>
</svg>
